<svg width="128" height="126" viewBox="0 0 128 126" fill="none" xmlns="http://www.w3.org/2000/svg">
<path d="M41.4002 60.5477L12.42 23.8051L36.7426 35.1901L49.6802 27.9451L41.4002 60.5477Z" fill="#175AA1"/>
<path d="M53.1566 45.5177L64.0196 0L70.1656 26.1426L83.871 31.8022L53.1566 45.5177Z" fill="#175AA1"/>
<path d="M73.3975 45.0297L115.555 24.7172L99.1615 45.9881L103.425 60.19L73.3975 45.0297Z" fill="#175AA1"/>
<path d="M86.156 59.9214L128 80.8726L101.145 80.8985L92.5104 92.9534L86.156 59.9214Z" fill="#175AA1"/>
<path d="M82.6302 79.2068L92.4364 124.964L75.6276 104.019L60.821 104.816L82.6302 79.2068Z" fill="#175AA1"/>
<path d="M64.5673 88.7715L35.7957 125.678L41.052 99.3417L30.9307 88.5052L64.5673 88.7715Z" fill="#175AA1"/>
<path d="M46.796 79.9856L0 79.956L24.0094 67.9245L26.3421 53.2811L46.796 79.9856Z" fill="#175AA1"/>
</svg>
